<svg width="841" height="108" viewBox="0 0 841 108" fill="none" xmlns="http://www.w3.org/2000/svg">
<path d="M123.019 19.6446H93.5741V4.91867C93.5741 3.61682 93.0571 2.36829 92.1368 1.44775C91.2164 0.5272 89.9682 0.0100403 88.6666 0.0100403H39.5916C38.2901 0.0100403 37.0419 0.5272 36.1215 1.44775C35.2012 2.36829 34.6842 3.61682 34.6842 4.91867V49.0964H5.23916C3.93761 49.0964 2.68937 49.6135 1.76904 50.5341C0.848703 51.4546 0.331665 52.7032 0.331665 54.005V103.091C0.331665 104.393 0.848703 105.642 1.76904 106.562C2.68937 107.483 3.93761 108 5.23916 108H123.019C124.321 108 125.569 107.483 126.489 106.562C127.41 105.642 127.927 104.393 127.927 103.091V24.5532C127.927 23.2514 127.41 22.0028 126.489 21.0823C125.569 20.1617 124.321 19.6446 123.019 19.6446Z" fill="url(#paint0_linear_412_22)"/>
<path d="M199.704 100.392C186.68 100.392 175.5 95.7804 166.164 86.6729C156.713 77.5654 151.987 66.4981 151.987 53.7015C151.987 40.9049 156.713 29.8376 166.164 20.7301C175.5 11.6226 186.68 7.01117 199.704 7.01117C212.844 7.01117 224.139 11.6226 233.475 20.7301C242.811 29.8376 247.421 40.9049 247.421 53.7015C247.421 66.4981 242.811 77.5654 233.475 86.6729C224.139 95.7804 212.844 100.392 199.704 100.392ZM199.704 78.1419C206.62 78.1419 212.383 75.7209 217.108 70.9942C221.834 66.2675 224.139 60.5033 224.139 53.7015C224.139 46.8997 221.834 41.0202 217.108 36.2935C212.383 31.5668 206.62 29.2611 199.704 29.2611C192.904 29.2611 187.141 31.6821 182.415 36.4088C177.69 41.1355 175.269 46.8997 175.269 53.7015C175.269 60.5033 177.69 66.2675 182.415 70.9942C187.141 75.7209 192.904 78.1419 199.704 78.1419ZM256.642 98.6626V8.74044H296.29C307.586 8.74044 316.345 11.6226 322.454 17.3868C328.563 23.2663 331.559 30.5293 331.559 38.9451C331.559 47.822 328.563 55.2002 322.454 60.9644C316.345 66.7287 307.701 69.7261 296.29 69.7261H279.693V98.6626H256.642ZM279.693 51.2805H295.023C303.897 51.2805 308.277 47.2456 308.277 39.0603C308.277 35.6018 307.24 32.835 305.05 30.5293C302.86 28.2236 299.518 27.186 295.023 27.186H279.693V51.2805ZM368.788 98.6626V31.1057H340.78V8.74044H419.847V31.1057H391.839V98.6626H368.788ZM429.068 98.6626V8.74044H452.119V98.6626H429.068ZM509.057 100.392C496.033 100.392 484.853 95.7804 475.517 86.6729C466.066 77.5654 461.34 66.4981 461.34 53.7015C461.34 40.9049 466.066 29.8376 475.517 20.7301C484.853 11.6226 496.033 7.01117 509.057 7.01117C522.196 7.01117 533.491 11.6226 542.827 20.7301C549.858 27.5319 554.238 35.4865 555.852 44.3634H531.763C530.61 41.366 528.766 38.5992 526.461 36.2935C521.735 31.5668 515.972 29.2611 509.057 29.2611C502.257 29.2611 496.494 31.6821 491.768 36.4088C487.042 41.1355 484.622 46.8997 484.622 53.7015C484.622 60.5033 487.042 66.2675 491.768 70.9942C496.494 75.7209 502.257 78.1419 509.057 78.1419C515.972 78.1419 521.735 75.7209 526.461 70.9942C529.688 67.7662 531.763 64.1924 532.8 59.9269H556.313C555.045 70.1872 550.665 79.0641 542.827 86.6729C533.491 95.7804 522.196 100.392 509.057 100.392ZM565.533 98.6626L601.955 8.74044H624.776L661.082 98.6626H635.956L628.695 78.603H598.151L590.659 98.6626H565.533ZM605.297 59.9269L621.318 59.8116L613.365 38.2533L605.297 59.9269ZM670.303 98.6626V8.74044H709.952C721.247 8.74044 730.007 11.6226 736.115 17.3868C742.224 23.2663 745.221 30.5293 745.221 38.9451C745.221 47.822 742.224 55.2002 736.115 60.9644C734.156 62.809 731.966 64.3077 729.545 65.5758L747.526 98.6626H725.742L709.952 69.7261H693.354V98.6626H670.303ZM693.354 51.2805H708.684C717.559 51.2805 721.938 47.2456 721.938 39.0603C721.938 35.6018 720.901 32.835 718.711 30.5293C716.521 28.2236 713.179 27.186 708.684 27.186H693.354V51.2805ZM756.746 98.6626V8.74044H798.47C807.575 8.74044 815.297 10.8156 821.867 14.9658C828.437 19.1161 833.278 24.5345 836.39 31.221C839.502 37.9075 841 45.401 841 53.7015C841 62.1173 839.502 69.6108 836.39 76.2973C833.278 82.9838 828.437 88.4022 821.867 92.4372C815.297 96.5874 807.575 98.6626 798.47 98.6626H756.746ZM779.798 76.4126H796.741C803.426 76.4126 808.612 74.3375 812.301 70.1872C815.874 66.1523 817.718 60.6186 817.718 53.7015C817.718 46.7844 815.874 41.2507 812.301 37.2158C808.612 33.1808 803.426 31.1057 796.741 31.1057H779.798V76.4126Z" fill="#343F52"/>
<defs>
<linearGradient id="paint0_linear_412_22" x1="0.331665" y1="0.0100403" x2="127.927" y2="0.0100403" gradientUnits="userSpaceOnUse">
<stop stop-color="#EF4136"/>
<stop offset="1" stop-color="#FBB040"/>
</linearGradient>
</defs>
</svg>
