<svg width="128" height="128" viewBox="0 0 128 128" fill="none" xmlns="http://www.w3.org/2000/svg">
  <path d="M34.684 4.919C34.684 3.617 35.201 2.368 36.121 1.448C37.042 0.527 38.29 0.01 39.592 0.01H88.667C89.968 0.01 91.216 0.527 92.137 1.448C93.057 2.368 93.574 3.617 93.574 4.919V19.645H123.019C124.321 19.645 125.569 20.162 126.489 21.082C127.41 22.003 127.927 23.251 127.927 24.553V103.091C127.927 104.393 127.41 105.642 126.489 106.562C125.569 107.483 124.321 108 123.019 108H5.239C3.938 108 2.689 107.483 1.769 106.562C0.849 105.642 0.332 104.393 0.332 103.091V54.005C0.332 52.703 0.849 51.455 1.769 50.534C2.689 49.614 3.938 49.097 5.239 49.097H34.684V4.919Z" fill="url(#paint0_linear_412_22)"/>
  <defs>
    <linearGradient id="paint0_linear_412_22" x1="0.332" y1="0.01" x2="127.927" y2="0.01" gradientUnits="userSpaceOnUse">
      <stop stop-color="#EF4136"/>
      <stop offset="1" stop-color="#FBB040"/>
    </linearGradient>
  </defs>
</svg>